<mxfile host="app.diagrams.net" agent="Mozilla/5.0 (X11; Linux x86_64; rv:131.0) Gecko/20100101 Firefox/131.0" version="24.7.17">
  <diagram name="Page-1" id="2OPp7FAaOo7LbOAuJkzw">
    <mxGraphModel dx="710" dy="1174" grid="0" gridSize="10" guides="1" tooltips="1" connect="1" arrows="1" fold="1" page="0" pageScale="1" pageWidth="827" pageHeight="1169" math="0" shadow="0">
      <root>
        <mxCell id="0" />
        <mxCell id="1" parent="0" />
        <mxCell id="_oZ8LhXAHsHZBwFGsVQp-8" style="edgeStyle=none;curved=1;rounded=0;orthogonalLoop=1;jettySize=auto;html=1;exitX=0.5;exitY=1;exitDx=0;exitDy=0;entryX=0.5;entryY=0;entryDx=0;entryDy=0;fontSize=12;startSize=8;endSize=8;" edge="1" parent="1" source="_oZ8LhXAHsHZBwFGsVQp-1" target="_oZ8LhXAHsHZBwFGsVQp-3">
          <mxGeometry relative="1" as="geometry" />
        </mxCell>
        <mxCell id="_oZ8LhXAHsHZBwFGsVQp-1" value="" style="ellipse;whiteSpace=wrap;html=1;aspect=fixed;" vertex="1" parent="1">
          <mxGeometry x="51" y="-71" width="80" height="80" as="geometry" />
        </mxCell>
        <mxCell id="_oZ8LhXAHsHZBwFGsVQp-2" value="op1" style="text;html=1;align=center;verticalAlign=middle;whiteSpace=wrap;rounded=0;fontSize=16;" vertex="1" parent="1">
          <mxGeometry x="142" y="-44" width="60" height="30" as="geometry" />
        </mxCell>
        <mxCell id="_oZ8LhXAHsHZBwFGsVQp-9" style="edgeStyle=none;curved=1;rounded=0;orthogonalLoop=1;jettySize=auto;html=1;exitX=0.5;exitY=1;exitDx=0;exitDy=0;entryX=0.5;entryY=0;entryDx=0;entryDy=0;fontSize=12;startSize=8;endSize=8;" edge="1" parent="1" source="_oZ8LhXAHsHZBwFGsVQp-3" target="_oZ8LhXAHsHZBwFGsVQp-5">
          <mxGeometry relative="1" as="geometry" />
        </mxCell>
        <mxCell id="_oZ8LhXAHsHZBwFGsVQp-3" value="" style="ellipse;whiteSpace=wrap;html=1;aspect=fixed;" vertex="1" parent="1">
          <mxGeometry x="51" y="43" width="80" height="80" as="geometry" />
        </mxCell>
        <mxCell id="_oZ8LhXAHsHZBwFGsVQp-4" value="op2" style="text;html=1;align=center;verticalAlign=middle;whiteSpace=wrap;rounded=0;fontSize=16;" vertex="1" parent="1">
          <mxGeometry x="142" y="70" width="60" height="30" as="geometry" />
        </mxCell>
        <mxCell id="_oZ8LhXAHsHZBwFGsVQp-5" value="" style="ellipse;whiteSpace=wrap;html=1;aspect=fixed;" vertex="1" parent="1">
          <mxGeometry x="51" y="157" width="80" height="80" as="geometry" />
        </mxCell>
        <mxCell id="_oZ8LhXAHsHZBwFGsVQp-6" value="op3" style="text;html=1;align=center;verticalAlign=middle;whiteSpace=wrap;rounded=0;fontSize=16;" vertex="1" parent="1">
          <mxGeometry x="142" y="184" width="60" height="30" as="geometry" />
        </mxCell>
      </root>
    </mxGraphModel>
  </diagram>
</mxfile>
